<svg width="42" height="38" viewBox="0 0 42 38" fill="none" xmlns="http://www.w3.org/2000/svg">
<g filter="url(#filter0_d_1_3)">
<path d="M4.13177 2.13177C3.61699 2.68719 2.70936 3.62192 2.14039 4.21798C1.55788 4.80049 1.08374 5.31527 1.08374 5.36946C1.08374 5.4101 6.09606 5.45074 12.2328 5.45074C23.2734 5.45074 23.3818 5.45074 24.2488 5.74877C24.9126 5.96552 25.319 6.20936 25.9015 6.77832C26.8091 7.63177 27.1207 8.18719 27.3645 9.35222C27.5542 10.2869 27.5 11.2488 27.1613 12.319C26.9446 13.0369 26.1995 13.931 24.9532 14.9335C24.6281 15.1909 24.0727 15.665 23.734 15.9631C23.3818 16.2746 22 17.4938 20.6724 18.6724C19.3313 19.8645 18.0443 20.9889 17.8276 21.1921L17.4076 21.5714L17.8411 21.9372C18.0714 22.1539 18.5862 22.5874 18.9791 22.9261C19.3719 23.2648 20.0899 23.8879 20.5776 24.3214C21.0653 24.7414 21.7697 25.351 22.1355 25.6761C22.5012 25.9877 23.0837 26.5025 23.4224 26.814C23.7611 27.1121 24.4113 27.681 24.8584 28.0739C25.3054 28.4532 25.9557 29.0222 26.2943 29.3337C26.633 29.6453 27.1749 30.1195 27.4865 30.3768C27.8116 30.6342 28.2857 31.0542 28.5566 31.3116C28.8276 31.5554 29.4372 32.0702 29.8978 32.4495C30.3719 32.8288 30.7512 33.181 30.7512 33.2217C30.7512 33.2759 30.9815 33.4791 31.266 33.6687C31.5369 33.8584 32.1872 34.4138 32.702 34.9015L33.6367 35.7956H36.7389H39.8411L39.3399 35.2808C39.0554 35.0099 38.7032 34.6847 38.5271 34.5764C38.3645 34.468 37.7278 33.9126 37.1182 33.3571C36.5086 32.8017 35.9397 32.3005 35.8584 32.2463C35.7635 32.2057 35.4249 31.8941 35.0862 31.569C34.7475 31.2438 33.8399 30.4446 33.0542 29.7672C32.2685 29.1034 31.0222 28.0062 30.2771 27.3559C27.8929 25.2426 27.6626 25.0394 27.0123 24.484C26.6601 24.186 26.2401 23.8202 26.0911 23.6712C25.9286 23.5222 25.5493 23.197 25.2512 22.9397C24.9667 22.6823 24.4926 22.2759 24.2081 22.0185L23.7069 21.5714L24.3436 20.9754C24.7094 20.6502 25.3867 20.0406 25.8744 19.6071C26.3621 19.1872 26.9988 18.6047 27.3103 18.3337C27.6084 18.0628 28.1773 17.5751 28.5702 17.2365C29.4101 16.532 29.383 16.5591 30.0197 15.7057C30.6158 14.9064 31.0764 13.8768 31.4421 12.5222C31.835 11.0727 31.7537 9.05419 31.2254 7.68596C31.0357 7.15764 30.8325 6.61576 30.7919 6.46675C30.7512 6.31773 30.399 5.74877 30.0197 5.19335C28.7599 3.36453 26.7143 1.96921 24.3978 1.37315C23.4631 1.12931 22.7857 1.11576 14.2377 1.11576H5.08005L4.13177 2.13177Z" stroke="url(#paint0_linear_1_3)" stroke-opacity="0.9" stroke-width="0.985222"/>
<path d="M15.9175 10.7746C15.7007 10.9372 15.3214 11.2488 15.0776 11.4791C14.8473 11.6958 14.3596 12.1429 13.9938 12.4544C13.6416 12.766 13.0727 13.2672 12.734 13.5517C12.3953 13.8498 11.5419 14.5948 10.8374 15.2044C10.133 15.814 9.18473 16.6404 8.73768 17.0332C8.29064 17.4261 7.72167 17.9138 7.47783 18.1305C7.22044 18.3337 6.85468 18.6589 6.65148 18.8485C6.43473 19.0382 5.96059 19.4717 5.56773 19.8103C5.18842 20.149 4.60591 20.6773 4.26724 20.9889L3.67118 21.5579L4.98522 22.7229C5.7032 23.3596 6.61084 24.1589 6.9766 24.4975C7.35591 24.8362 7.87069 25.3103 8.12808 25.5406C8.39901 25.7845 8.76478 26.0961 8.94089 26.2451C9.26601 26.516 11.298 28.2635 11.5961 28.548C11.6909 28.6158 12.0837 28.9544 12.4766 29.2931C12.8695 29.6318 13.4384 30.133 13.7229 30.4039C14.0209 30.6884 14.2919 30.9187 14.3325 30.9187C14.3732 30.9187 14.7118 31.2032 15.1047 31.569C15.9852 32.3682 16.8387 33.1133 17.7599 33.899C18.1527 34.2377 18.7352 34.7389 19.0468 35.0234L19.6158 35.5246L22.1626 35.4975L24.7229 35.4569L24.33 35.1182C23.6798 34.5628 21.6342 32.7611 21.3227 32.4766C21.1601 32.3276 20.6995 31.9347 20.3066 31.5961C19.9138 31.2574 19.3448 30.7697 19.0468 30.4852C18.7352 30.2143 18.1256 29.6724 17.6786 29.2931C17.2315 28.9002 16.5813 28.3313 16.2426 28.0332C15.9039 27.7217 15.335 27.2204 14.9828 26.9224C14.617 26.6244 14.2106 26.2586 14.0616 26.1232C13.4384 25.5542 11.2574 23.6305 10.5665 23.0616C10.1601 22.7229 9.63177 22.2488 9.37438 22.0049C8.81897 21.4766 8.75123 21.585 10.702 19.9052C11.4877 19.2414 12.314 18.5098 12.5308 18.3066C12.7611 18.1034 13.33 17.5887 13.8177 17.1687C14.9421 16.2069 15.6872 15.5431 16.4458 14.8658C16.7709 14.5677 17.3399 14.0665 17.7057 13.7549C19.4803 12.2241 20.8756 10.9914 21.1195 10.7475L21.4039 10.4631H18.8707C16.4594 10.4766 16.2968 10.4901 15.9175 10.7746Z" stroke="url(#paint1_linear_1_3)" stroke-opacity="0.9" stroke-width="0.985222"/>
<path d="M4.13177 2.13177C3.61699 2.68719 2.70936 3.62192 2.14039 4.21798C1.55788 4.80049 1.08374 5.31527 1.08374 5.36946C1.08374 5.4101 6.09606 5.45074 12.2328 5.45074C23.2734 5.45074 23.3818 5.45074 24.2488 5.74877C24.9126 5.96552 25.319 6.20936 25.9015 6.77832C26.8091 7.63177 27.1207 8.18719 27.3645 9.35222C27.5542 10.2869 27.5 11.2488 27.1613 12.319C26.9446 13.0369 26.1995 13.931 24.9532 14.9335C24.6281 15.1909 24.0727 15.665 23.734 15.9631C23.3818 16.2746 22 17.4938 20.6724 18.6724C19.3313 19.8645 18.0443 20.9889 17.8276 21.1921L17.4076 21.5714L17.8411 21.9372C18.0714 22.1539 18.5862 22.5874 18.9791 22.9261C19.3719 23.2648 20.0899 23.8879 20.5776 24.3214C21.0653 24.7414 21.7697 25.351 22.1355 25.6761C22.5012 25.9877 23.0837 26.5025 23.4224 26.814C23.7611 27.1121 24.4113 27.681 24.8584 28.0739C25.3054 28.4532 25.9557 29.0222 26.2943 29.3337C26.633 29.6453 27.1749 30.1195 27.4865 30.3768C27.8116 30.6342 28.2857 31.0542 28.5566 31.3116C28.8276 31.5554 29.4372 32.0702 29.8978 32.4495C30.3719 32.8288 30.7512 33.181 30.7512 33.2217C30.7512 33.2759 30.9815 33.4791 31.266 33.6687C31.5369 33.8584 32.1872 34.4138 32.702 34.9015L33.6367 35.7956H36.7389H39.8411L39.3399 35.2808C39.0554 35.0099 38.7032 34.6847 38.5271 34.5764C38.3645 34.468 37.7278 33.9126 37.1182 33.3571C36.5086 32.8017 35.9397 32.3005 35.8584 32.2463C35.7635 32.2057 35.4249 31.8941 35.0862 31.569C34.7475 31.2438 33.8399 30.4446 33.0542 29.7672C32.2685 29.1034 31.0222 28.0062 30.2771 27.3559C27.8929 25.2426 27.6626 25.0394 27.0123 24.484C26.6601 24.186 26.2401 23.8202 26.0911 23.6712C25.9286 23.5222 25.5493 23.197 25.2512 22.9397C24.9667 22.6823 24.4926 22.2759 24.2081 22.0185L23.7069 21.5714L24.3436 20.9754C24.7094 20.6502 25.3867 20.0406 25.8744 19.6071C26.3621 19.1872 26.9988 18.6047 27.3103 18.3337C27.6084 18.0628 28.1773 17.5751 28.5702 17.2365C29.4101 16.532 29.383 16.5591 30.0197 15.7057C30.6158 14.9064 31.0764 13.8768 31.4421 12.5222C31.835 11.0727 31.7537 9.05419 31.2254 7.68596C31.0357 7.15764 30.8325 6.61576 30.7919 6.46675C30.7512 6.31773 30.399 5.74877 30.0197 5.19335C28.7599 3.36453 26.7143 1.96921 24.3978 1.37315C23.4631 1.12931 22.7857 1.11576 14.2377 1.11576H5.08005L4.13177 2.13177Z" stroke="url(#paint2_linear_1_3)" stroke-width="0.985222"/>
<path d="M15.9175 10.7746C15.7007 10.9372 15.3214 11.2488 15.0776 11.4791C14.8473 11.6958 14.3596 12.1429 13.9938 12.4544C13.6416 12.766 13.0727 13.2672 12.734 13.5517C12.3953 13.8498 11.5419 14.5948 10.8374 15.2044C10.133 15.814 9.18473 16.6404 8.73768 17.0332C8.29064 17.4261 7.72167 17.9138 7.47783 18.1305C7.22044 18.3337 6.85468 18.6589 6.65148 18.8485C6.43473 19.0382 5.96059 19.4717 5.56773 19.8103C5.18842 20.149 4.60591 20.6773 4.26724 20.9889L3.67118 21.5579L4.98522 22.7229C5.7032 23.3596 6.61084 24.1589 6.9766 24.4975C7.35591 24.8362 7.87069 25.3103 8.12808 25.5406C8.39901 25.7845 8.76478 26.0961 8.94089 26.2451C9.26601 26.516 11.298 28.2635 11.5961 28.548C11.6909 28.6158 12.0837 28.9544 12.4766 29.2931C12.8695 29.6318 13.4384 30.133 13.7229 30.4039C14.0209 30.6884 14.2919 30.9187 14.3325 30.9187C14.3732 30.9187 14.7118 31.2032 15.1047 31.569C15.9852 32.3682 16.8387 33.1133 17.7599 33.899C18.1527 34.2377 18.7352 34.7389 19.0468 35.0234L19.6158 35.5246L22.1626 35.4975L24.7229 35.4569L24.33 35.1182C23.6798 34.5628 21.6342 32.7611 21.3227 32.4766C21.1601 32.3276 20.6995 31.9347 20.3066 31.5961C19.9138 31.2574 19.3448 30.7697 19.0468 30.4852C18.7352 30.2143 18.1256 29.6724 17.6786 29.2931C17.2315 28.9002 16.5813 28.3313 16.2426 28.0332C15.9039 27.7217 15.335 27.2204 14.9828 26.9224C14.617 26.6244 14.2106 26.2586 14.0616 26.1232C13.4384 25.5542 11.2574 23.6305 10.5665 23.0616C10.1601 22.7229 9.63177 22.2488 9.37438 22.0049C8.81897 21.4766 8.75123 21.585 10.702 19.9052C11.4877 19.2414 12.314 18.5098 12.5308 18.3066C12.7611 18.1034 13.33 17.5887 13.8177 17.1687C14.9421 16.2069 15.6872 15.5431 16.4458 14.8658C16.7709 14.5677 17.3399 14.0665 17.7057 13.7549C19.4803 12.2241 20.8756 10.9914 21.1195 10.7475L21.4039 10.4631H18.8707C16.4594 10.4766 16.2968 10.4901 15.9175 10.7746Z" stroke="url(#paint3_linear_1_3)" stroke-width="0.985222"/>
</g>
<defs>
<filter id="filter0_d_1_3" x="0.0985219" y="0.623153" width="41.4024" height="36.6502" filterUnits="userSpaceOnUse" color-interpolation-filters="sRGB">
<feFlood flood-opacity="0" result="BackgroundImageFix"/>
<feColorMatrix in="SourceAlpha" type="matrix" values="0 0 0 0 0 0 0 0 0 0 0 0 0 0 0 0 0 0 127 0" result="hardAlpha"/>
<feOffset dy="0.492611"/>
<feGaussianBlur stdDeviation="0.246305"/>
<feComposite in2="hardAlpha" operator="out"/>
<feColorMatrix type="matrix" values="0 0 0 0 0 0 0 0 0 0 0 0 0 0 0 0 0 0 0.25 0"/>
<feBlend mode="normal" in2="BackgroundImageFix" result="effect1_dropShadow_1_3"/>
<feBlend mode="normal" in="SourceGraphic" in2="effect1_dropShadow_1_3" result="shape"/>
</filter>
<linearGradient id="paint0_linear_1_3" x1="20.4624" y1="1.11576" x2="20.4624" y2="35.7956" gradientUnits="userSpaceOnUse">
<stop stop-color="#1F2667"/>
<stop offset="1" stop-color="#1595B6"/>
</linearGradient>
<linearGradient id="paint1_linear_1_3" x1="14.197" y1="10.4631" x2="14.197" y2="35.5246" gradientUnits="userSpaceOnUse">
<stop stop-color="#1F2667"/>
<stop offset="1" stop-color="#1595B6"/>
</linearGradient>
<linearGradient id="paint2_linear_1_3" x1="-7.78197" y1="49.3421" x2="-7.79838" y2="44.9741" gradientUnits="userSpaceOnUse">
<stop stop-color="#1595B6"/>
<stop offset="1" stop-color="#1595B6" stop-opacity="0"/>
</linearGradient>
<linearGradient id="paint3_linear_1_3" x1="-7.78197" y1="49.3421" x2="-7.79838" y2="44.9741" gradientUnits="userSpaceOnUse">
<stop stop-color="#1595B6"/>
<stop offset="1" stop-color="#1595B6" stop-opacity="0"/>
</linearGradient>
</defs>
</svg>
