<svg width="308" height="272" viewBox="0 0 308 272" fill="none" xmlns="http://www.w3.org/2000/svg">
<g filter="url(#filter0_d_1_4900)">
<path d="M30.5 11.5C26.7 15.6 20 22.5 15.8 26.9C11.5 31.2 8 35 8 35.4C8 35.7 45 36 90.3 36C171.8 36 172.6 36 179 38.2C183.9 39.8 186.9 41.6 191.2 45.8C197.9 52.1 200.2 56.2 202 64.8C203.4 71.7 203 78.8 200.5 86.7C198.9 92 193.4 98.6 184.2 106C181.8 107.9 177.7 111.4 175.2 113.6C172.6 115.9 162.4 124.9 152.6 133.6C142.7 142.4 133.2 150.7 131.6 152.2L128.5 155L131.7 157.7C133.4 159.3 137.2 162.5 140.1 165C143 167.5 148.3 172.1 151.9 175.3C155.5 178.4 160.7 182.9 163.4 185.3C166.1 187.6 170.4 191.4 172.9 193.7C175.4 195.9 180.2 200.1 183.5 203C186.8 205.8 191.6 210 194.1 212.3C196.6 214.6 200.6 218.1 202.9 220C205.3 221.9 208.8 225 210.8 226.9C212.8 228.7 217.3 232.5 220.7 235.3C224.2 238.1 227 240.7 227 241C227 241.4 228.7 242.9 230.8 244.3C232.8 245.7 237.6 249.8 241.4 253.4L248.3 260H271.2H294.1L290.4 256.2C288.3 254.2 285.7 251.8 284.4 251C283.2 250.2 278.5 246.1 274 242C269.5 237.9 265.3 234.2 264.7 233.8C264 233.5 261.5 231.2 259 228.8C256.5 226.4 249.8 220.5 244 215.5C238.2 210.6 229 202.5 223.5 197.7C205.9 182.1 204.2 180.6 199.4 176.5C196.8 174.3 193.7 171.6 192.6 170.5C191.4 169.4 188.6 167 186.4 165.1C184.3 163.2 180.8 160.2 178.7 158.3L175 155L179.7 150.6C182.4 148.2 187.4 143.7 191 140.5C194.6 137.4 199.3 133.1 201.6 131.1C203.8 129.1 208 125.5 210.9 123C217.1 117.8 216.9 118 221.6 111.7C226 105.8 229.4 98.2 232.1 88.2C235 77.5 234.4 62.6 230.5 52.5C229.1 48.6 227.6 44.6 227.3 43.5C227 42.4 224.4 38.2 221.6 34.1C212.3 20.6 197.2 10.3 180.1 5.9C173.2 4.1 168.2 4 105.1 4H37.5L30.5 11.5Z" stroke="url(#paint0_linear_1_4900)" stroke-opacity="0.9" stroke-width="8"/>
<path d="M117.5 75.3C115.9 76.5 113.1 78.8 111.3 80.5C109.6 82.1 106 85.4 103.3 87.7C100.7 90 96.5 93.7 94 95.8C91.5 98 85.2 103.5 80 108C74.8 112.5 67.8 118.6 64.5 121.5C61.2 124.4 57 128 55.2 129.6C53.3 131.1 50.6 133.5 49.1 134.9C47.5 136.3 44 139.5 41.1 142C38.3 144.5 34 148.4 31.5 150.7L27.1 154.9L36.8 163.5C42.1 168.2 48.8 174.1 51.5 176.6C54.3 179.1 58.1 182.6 60 184.3C62 186.1 64.7 188.4 66 189.5C68.4 191.5 83.4 204.4 85.6 206.5C86.3 207 89.2 209.5 92.1 212C95 214.5 99.2 218.2 101.3 220.2C103.5 222.3 105.5 224 105.8 224C106.1 224 108.6 226.1 111.5 228.8C118 234.7 124.3 240.2 131.1 246C134 248.5 138.3 252.2 140.6 254.3L144.8 258L163.6 257.8L182.5 257.5L179.6 255C174.8 250.9 159.7 237.6 157.4 235.5C156.2 234.4 152.8 231.5 149.9 229C147 226.5 142.8 222.9 140.6 220.8C138.3 218.8 133.8 214.8 130.5 212C127.2 209.1 122.4 204.9 119.9 202.7C117.4 200.4 113.2 196.7 110.6 194.5C107.9 192.3 104.9 189.6 103.8 188.6C99.2 184.4 83.1 170.2 78 166C75 163.5 71.1 160 69.2 158.2C65.1 154.3 64.6 155.1 79 142.7C84.8 137.8 90.9 132.4 92.5 130.9C94.2 129.4 98.4 125.6 102 122.5C110.3 115.4 115.8 110.5 121.4 105.5C123.8 103.3 128 99.6 130.7 97.3C143.8 86 154.1 76.9 155.9 75.1L158 73H139.3C121.5 73.1 120.3 73.2 117.5 75.3Z" stroke="url(#paint1_linear_1_4900)" stroke-opacity="0.9" stroke-width="8"/>
<path d="M30.5 11.5C26.7 15.6 20 22.5 15.8 26.9C11.5 31.2 8 35 8 35.4C8 35.7 45 36 90.3 36C171.8 36 172.6 36 179 38.2C183.9 39.8 186.9 41.6 191.2 45.8C197.9 52.1 200.2 56.2 202 64.8C203.4 71.7 203 78.8 200.5 86.7C198.9 92 193.4 98.6 184.2 106C181.8 107.9 177.7 111.4 175.2 113.6C172.6 115.9 162.4 124.9 152.6 133.6C142.7 142.4 133.2 150.7 131.6 152.2L128.5 155L131.7 157.7C133.4 159.3 137.2 162.5 140.1 165C143 167.5 148.3 172.1 151.9 175.3C155.5 178.4 160.7 182.9 163.4 185.3C166.1 187.6 170.4 191.4 172.9 193.7C175.4 195.9 180.2 200.1 183.5 203C186.8 205.8 191.6 210 194.1 212.3C196.6 214.6 200.6 218.1 202.9 220C205.3 221.9 208.8 225 210.8 226.9C212.8 228.7 217.3 232.5 220.7 235.3C224.2 238.1 227 240.7 227 241C227 241.4 228.7 242.9 230.8 244.3C232.8 245.7 237.6 249.8 241.4 253.4L248.3 260H271.2H294.1L290.4 256.2C288.3 254.2 285.7 251.8 284.4 251C283.2 250.2 278.5 246.1 274 242C269.5 237.9 265.3 234.2 264.7 233.8C264 233.5 261.5 231.2 259 228.8C256.5 226.4 249.8 220.5 244 215.5C238.2 210.6 229 202.5 223.5 197.7C205.9 182.1 204.2 180.6 199.4 176.5C196.8 174.3 193.7 171.6 192.6 170.5C191.4 169.4 188.6 167 186.4 165.1C184.3 163.2 180.8 160.2 178.7 158.3L175 155L179.7 150.6C182.4 148.2 187.4 143.7 191 140.5C194.6 137.4 199.3 133.1 201.6 131.1C203.8 129.1 208 125.5 210.9 123C217.1 117.8 216.9 118 221.6 111.7C226 105.8 229.4 98.2 232.1 88.2C235 77.5 234.4 62.6 230.5 52.5C229.1 48.6 227.6 44.6 227.3 43.5C227 42.4 224.4 38.2 221.6 34.1C212.3 20.6 197.2 10.3 180.1 5.9C173.2 4.1 168.2 4 105.1 4H37.5L30.5 11.5Z" stroke="url(#paint2_linear_1_4900)" stroke-width="8"/>
<path d="M117.5 75.3C115.9 76.5 113.1 78.8 111.3 80.5C109.6 82.1 106 85.4 103.3 87.7C100.7 90 96.5 93.7 94 95.8C91.5 98 85.2 103.5 80 108C74.8 112.5 67.8 118.6 64.5 121.5C61.2 124.4 57 128 55.2 129.6C53.3 131.1 50.6 133.5 49.1 134.9C47.5 136.3 44 139.5 41.1 142C38.3 144.5 34 148.4 31.5 150.7L27.1 154.9L36.8 163.5C42.1 168.2 48.8 174.1 51.5 176.6C54.3 179.1 58.1 182.6 60 184.3C62 186.1 64.7 188.4 66 189.5C68.4 191.5 83.4 204.4 85.6 206.5C86.3 207 89.2 209.5 92.1 212C95 214.5 99.2 218.2 101.3 220.2C103.5 222.3 105.5 224 105.8 224C106.1 224 108.6 226.1 111.5 228.8C118 234.7 124.3 240.2 131.1 246C134 248.5 138.3 252.2 140.6 254.3L144.8 258L163.6 257.8L182.5 257.5L179.6 255C174.8 250.9 159.7 237.6 157.4 235.5C156.2 234.4 152.8 231.5 149.9 229C147 226.5 142.8 222.9 140.6 220.8C138.3 218.8 133.8 214.8 130.5 212C127.2 209.1 122.4 204.9 119.9 202.7C117.4 200.4 113.2 196.7 110.6 194.5C107.9 192.3 104.9 189.6 103.8 188.6C99.2 184.4 83.1 170.2 78 166C75 163.5 71.1 160 69.2 158.2C65.1 154.3 64.6 155.1 79 142.7C84.8 137.8 90.9 132.4 92.5 130.9C94.2 129.4 98.4 125.6 102 122.5C110.3 115.4 115.8 110.5 121.4 105.5C123.8 103.3 128 99.6 130.7 97.3C143.8 86 154.1 76.9 155.9 75.1L158 73H139.3C121.5 73.1 120.3 73.2 117.5 75.3Z" stroke="url(#paint3_linear_1_4900)" stroke-width="8"/>
</g>
<defs>
<filter id="filter0_d_1_4900" x="0" y="0" width="307.578" height="272" filterUnits="userSpaceOnUse" color-interpolation-filters="sRGB">
<feFlood flood-opacity="0" result="BackgroundImageFix"/>
<feColorMatrix in="SourceAlpha" type="matrix" values="0 0 0 0 0 0 0 0 0 0 0 0 0 0 0 0 0 0 127 0" result="hardAlpha"/>
<feOffset dy="4"/>
<feGaussianBlur stdDeviation="2"/>
<feComposite in2="hardAlpha" operator="out"/>
<feColorMatrix type="matrix" values="0 0 0 0 0 0 0 0 0 0 0 0 0 0 0 0 0 0 0.25 0"/>
<feBlend mode="normal" in2="BackgroundImageFix" result="effect1_dropShadow_1_4900"/>
<feBlend mode="normal" in="SourceGraphic" in2="effect1_dropShadow_1_4900" result="shape"/>
</filter>
<linearGradient id="paint0_linear_1_4900" x1="151.05" y1="4" x2="151.05" y2="260" gradientUnits="userSpaceOnUse">
<stop stop-color="#1F2667"/>
<stop offset="1" stop-color="#1595B6"/>
</linearGradient>
<linearGradient id="paint1_linear_1_4900" x1="104.8" y1="73" x2="104.8" y2="258" gradientUnits="userSpaceOnUse">
<stop stop-color="#1F2667"/>
<stop offset="1" stop-color="#1595B6"/>
</linearGradient>
<linearGradient id="paint2_linear_1_4900" x1="-57.4451" y1="359.998" x2="-57.5662" y2="327.754" gradientUnits="userSpaceOnUse">
<stop stop-color="#1595B6"/>
<stop offset="1" stop-color="#1595B6" stop-opacity="0"/>
</linearGradient>
<linearGradient id="paint3_linear_1_4900" x1="-57.4451" y1="359.998" x2="-57.5662" y2="327.754" gradientUnits="userSpaceOnUse">
<stop stop-color="#1595B6"/>
<stop offset="1" stop-color="#1595B6" stop-opacity="0"/>
</linearGradient>
</defs>
</svg>
