<svg width="406" height="368" viewBox="0 0 406 368" fill="none" xmlns="http://www.w3.org/2000/svg"
  class="pointer-events-none absolute top-0 left-1/2 -translate-y-[80px] sm:-translate-y-[180px] -translate-x-1/2 w-[300px] sm:w-[400px] md:w-[650px]"
  style="height: 700px; width: auto; margin-left: -100px; padding-bottom: 170px; margin-top: -100px;">
  <defs>
    <linearGradient id="paint0_linear" x1="205.549" y1="20.0169" x2="204.338" y2="342.461" gradientUnits="userSpaceOnUse">
      <stop offset="0" stop-color="#1595B6"/>
      <stop offset="0.5" stop-color="#1F5D8A"/>
      <stop offset="1" stop-color="#1F2667"/>
    </linearGradient>
  </defs>
          
  <g transform="translate(0.000000,460.000000) scale(0.100000,-0.100000)"
    fill="none" stroke="none">
    
    <path d="M1085 3505 c-38 -41 -105 -110 -147 -154 -43 -43 -78 -81 -78 -85 0
    -3 370 -6 823 -6 815 0 823 0 887 -22 49 -16 79 -34 122 -76 67 -63 90 -104
    108 -190 14 -69 10 -140 -15 -219 -16 -53 -71 -119 -163 -193 -24 -19 -65 -54
    -90 -76 -26 -23 -128 -113 -226 -200 -99 -88 -194 -171 -210 -186 l-31 -28 32
    -27 c17 -16 55 -48 84 -73 29 -25 82 -71 118 -103 36 -31 88 -76 115 -100 27
    -23 70 -61 95 -84 25 -22 73 -64 106 -93 33 -28 81 -70 106 -93 25 -23 65 -58
    88 -77 24 -19 59 -50 79 -69 20 -18 65 -56 99 -84 35 -28 63 -54 63 -57 0 -4
    17 -19 38 -33 20 -14 68 -55 106 -91 l69 -66 229 0 229 0 -37 38 c-21 20 -47
    44 -60 52 -12 8 -59 49 -104 90 -45 41 -87 78 -93 82 -7 3 -32 26 -57 50 -25
    24 -92 83 -150 133 -58 49 -150 130 -205 178 -176 156 -193 171 -241 212 -26
    22 -57 49 -68 60 -12 11 -40 35 -62 54 -21 19 -56 49 -77 68 l-37 33 47 44
    c27 24 77 69 113 101 36 31 83 74 106 94 22 20 64 56 93 81 62 52 60 50 107
    113 44 59 78 135 105 235 29 107 23 256 -16 357 -14 39 -29 79 -32 90 -3 11
    -29 53 -57 94 -93 135 -244 238 -415 282 -69 18 -119 19 -750 19 l-676 0 -70
    -75z"
      stroke="url(#paint0_linear)"
      stroke-width="80"
    />
    <path d="M1955 2867 c-16 -12 -44 -35 -62 -52 -17 -16 -53 -49 -80 -72 -26
    -23 -68 -60 -93 -81 -25 -22 -88 -77 -140 -122 -52 -45 -122 -106 -155 -135
    -33 -29 -75 -65 -93 -81 -19 -15 -46 -39 -61 -53 -16 -14 -51 -46 -80 -71 -28
    -25 -71 -64 -96 -87 l-44 -42 97 -86 c53 -47 120 -106 147 -131 28 -25 66 -60
    85 -77 20 -18 47 -41 60 -52 24 -20 174 -149 196 -170 7 -5 36 -30 65 -55 29
    -25 71 -62 92 -82 22 -21 42 -38 45 -38 3 0 28 -21 57 -48 65 -59 128 -114
    196 -172 29 -25 72 -62 95 -83 l42 -37 188 2 189 3 -29 25 c-48 41 -199 174
    -222 195 -12 11 -46 40 -75 65 -29 25 -71 61 -93 82 -23 20 -68 60 -101 88
    -33 29 -81 71 -106 93 -25 23 -67 60 -93 82 -27 22 -57 49 -68 59 -46 42 -207
    184 -258 226 -30 25 -69 60 -88 78 -41 39 -46 31 98 155 58 49 119 103 135
    118 17 15 59 53 95 84 83 71 138 120 194 170 24 22 66 59 93 82 131 113 234
    204 252 222 l21 21 -187 0 c-178 -1 -190 -2 -218 -23z"
      stroke="url(#paint0_linear)"
      stroke-width="80"
   />
  </g>
</svg> 